<svg width="37" height="38" viewBox="0 0 37 38" fill="none" xmlns="http://www.w3.org/2000/svg">
<g clip-path="url(#clip0_608_13985)">
<path fill-rule="evenodd" clip-rule="evenodd" d="M19.6519 3.20599C18.9845 3.18962 18.5167 3.2853 18.5167 3.2853C16.2732 3.83986 15.2245 6.43334 15.2245 6.43334C14.1896 8.92784 14.6947 11.4702 14.6947 11.4702C15.4694 15.1034 18.2896 14.5002 18.2896 14.5002C20.1874 14.3717 21.5818 12.0605 21.5818 12.0605C23.1526 9.86275 23.3603 7.92866 23.3603 7.92866C23.7278 4.97517 21.9602 3.87556 21.9602 3.87556C21.1704 3.38031 20.3193 3.22322 19.6519 3.2066V3.20599ZM9.43488 4.7013C8.61771 4.79323 7.83374 5.21934 7.24012 5.80312C5.93205 7.22427 5.47813 9.24165 5.42376 11.1548C5.36019 12.0338 5.58796 12.9255 5.95353 13.7126C6.55196 15.0641 7.8797 16.0024 9.32136 15.9949C10.3421 16.1447 11.4332 15.7793 12.1216 14.9718C12.744 14.3124 13.0524 13.4125 13.2568 12.532C13.7078 10.7054 13.8337 8.6864 13.0298 6.94428C12.5328 6.08726 11.8024 5.33784 10.9107 4.93741C10.4436 4.72624 9.92518 4.64653 9.43488 4.7013ZM28.1661 8.79375C26.601 8.77738 25.2523 9.62011 25.2523 9.62011C22.619 10.8931 21.6953 14.6176 21.6953 14.6176C21.3665 18.2089 23.436 18.7494 23.436 18.7494C25.1712 19.4799 27.712 17.8837 27.712 17.8837C29.974 16.7225 31.042 14.5389 31.042 14.5389C32.754 12.0992 30.9663 10.0923 30.9663 10.0923C30.1198 9.09401 29.1051 8.80345 28.1661 8.79375ZM15.4894 15.5227C14.5499 15.665 13.6855 16.3236 12.8784 16.8212C12.0319 17.4498 10.9797 17.3784 10.0025 17.2934C7.67861 17.1541 5.08471 17.9861 3.83445 20.166C2.92489 21.5708 2.84413 23.4604 3.56956 24.9668C4.22598 26.1988 4.97158 27.4528 6.14273 28.2329C7.31688 29.155 8.7765 29.3438 10.1539 29.7282C11.6696 30.0971 12.4785 31.5882 13.5595 32.6008C15.1891 34.293 17.6563 34.8927 19.8789 34.4109C22.0274 33.6943 23.7492 31.4626 23.6252 29.0592C23.3816 27.3977 22.5926 25.8605 21.7331 24.4552C21.4669 23.2795 21.5361 22.0722 21.4682 20.8743C21.535 18.9545 20.0098 17.5719 18.668 16.5064C17.9755 16.0959 17.2214 15.7559 16.4354 15.6014C16.1013 15.5082 15.8026 15.4752 15.4894 15.5221V15.5227ZM29.7175 18.9068C29.4503 18.9244 29.1795 18.9698 28.9229 19.0252C27.6058 19.2491 26.4423 20.0434 25.4037 20.8746C24.2503 21.7263 23.5723 23.1158 23.4738 24.5736C23.4216 25.0051 23.4245 25.461 23.663 25.8328C24.1544 26.9026 25.1709 27.7952 26.3497 27.8397C27.9668 27.7981 29.5317 27.2103 30.8149 26.187C31.6567 25.4649 32.4724 24.5922 32.934 23.5505C33.4666 22.4028 33.3156 20.9639 32.4799 20.0089C32.336 19.8213 32.1735 19.6402 31.988 19.4974C31.3323 18.99 30.5192 18.8534 29.7175 18.9071V18.9068Z" fill="white"/>
</g>
<defs>
<clipPath id="clip0_608_13985">
<rect width="36.3271" height="37.7764" fill="white"/>
</clipPath>
</defs>
</svg>
